# 3ds Max Wavefront OBJ Exporter v0.97b - (c)2007 guruware
# File Created: 05.02.2021 17:57:46

mtllib PlasterSpatula2.mtl

#
# object PlasterSpatula2
#

v  1.8641 -3.9820 0.4130
v  1.8333 -3.7903 0.3728
v  1.8546 -3.7709 0.4490
v  1.8853 -3.9626 0.4891
v  1.8284 -4.1683 0.4703
v  1.8496 -4.1489 0.5465
v  1.7305 -4.3269 0.5379
v  1.7518 -4.3075 0.6141
v  1.5824 -4.4385 0.6077
v  1.6037 -4.4191 0.6839
v  1.4017 -4.4898 0.6712
v  1.4230 -4.4704 0.7474
v  1.2104 -4.4745 0.7207
v  1.2317 -4.4551 0.7969
v  1.0315 -4.3945 0.7504
v  1.0528 -4.3751 0.8266
v  0.8866 -4.2595 0.7565
v  0.9079 -4.2401 0.8327
v  0.7931 -4.0856 0.7384
v  0.8144 -4.0662 0.8146
v  1.1799 -1.9587 0.0896
v  1.2011 -1.9393 0.1657
v  0.2173 -2.2186 0.5115
v  0.1960 -2.2380 0.4353
v  1.2304 -1.8988 0.4258
v  0.3307 -2.1543 0.7420
v  0.9229 -3.9796 1.0408
v  1.8741 -3.7096 0.7065
v  1.0129 -4.1521 1.0595
v  1.9068 -3.8983 0.7453
v  1.1495 -4.2874 1.0558
v  1.8782 -4.0806 0.7997
v  1.3077 -4.3771 0.9999
v  1.7833 -4.2420 0.8327
v  1.4711 -4.4077 0.9083
v  1.6363 -4.3608 0.8503
v  0.3627 -0.0441 -0.4476
v  -0.4802 -0.2834 -0.1514
v  -0.5014 -0.1362 -0.0991
v  0.3378 0.1021 -0.3940
v  0.7654 -4.1230 0.4771
v  1.7167 -3.8529 0.1428
v  1.7494 -4.0416 0.1816
v  0.8555 -4.2954 0.4958
v  1.7208 -4.2239 0.2360
v  0.9921 -4.4308 0.4921
v  1.6427 -4.3700 0.3294
v  1.1671 -4.5051 0.4966
v  1.5220 -4.4649 0.4410
v  1.3568 -4.5118 0.4990
v  1.0730 -2.0422 -0.1379
v  0.4543 0.2081 0.0230
v  0.5201 0.0992 0.1161
v  0.4638 0.1297 -0.1545
v  0.4167 0.2617 -0.1749
v  -0.4791 -0.1514 0.0933
v  -0.5222 -0.0182 0.0714
v  0.4425 0.1103 -0.2306
v  -0.4579 -0.1320 0.1695
v  -0.3228 -0.1400 0.4123
v  0.1732 -2.2976 0.1783
v  -0.5010 0.0012 0.1476
v  -0.3850 -0.0301 0.3179
v  0.3955 0.2423 -0.2511
v  -0.8909 1.0268 -0.0043
v  -0.9122 1.0074 -0.0804
v  0.0810 1.2893 -0.4295
v  0.1022 1.3087 -0.3533
v  -1.3205 2.1040 -0.1707
v  -1.3415 2.0837 -0.2467
v  -0.2399 2.3965 -0.6339
v  -0.2189 2.4167 -0.5579
v  -1.7209 3.0989 -0.3252
v  -1.7419 3.0786 -0.4012
v  -0.5346 3.4213 -0.8255
v  -0.5136 3.4416 -0.7495
v  -1.9071 3.5921 -0.3960
v  -1.9301 3.5779 -0.4728
v  -0.6874 3.9307 -0.9096
v  -0.6644 3.9449 -0.8327
v  -2.0038 3.8067 -0.4719
v  -1.9781 3.8116 -0.3948
v  -2.0045 3.9273 -0.3762
v  -2.0333 3.9376 -0.4500
v  -0.7460 4.1637 -0.9140
v  -0.7755 4.2947 -0.8921
v  -0.7466 4.2844 -0.8183
v  -0.7203 4.1687 -0.8369
v  -2.0543 4.0763 -0.3977
v  -2.0223 4.0509 -0.3272
v  -1.9716 4.1776 -0.2876
v  -2.0051 4.2231 -0.3462
v  -0.7645 4.4079 -0.7693
v  -0.7964 4.4334 -0.8398
v  -0.8681 4.5459 -0.7458
v  -0.8346 4.5004 -0.6872
v  -1.8771 4.2806 -0.2616
v  -1.9106 4.3262 -0.3202
v  -0.9640 4.5949 -0.6529
v  -0.9305 4.5493 -0.5943
v  -1.7200 4.3784 -0.2755
v  -1.7535 4.4240 -0.3341
v  -1.1221 4.6032 -0.5560
v  -1.0885 4.5577 -0.4974
# 104 vertices

vn 0.9388 -0.0942 -0.3313
vn 0.9056 0.1612 -0.3923
vn 0.9543 0.2041 -0.2184
vn 0.9851 -0.0534 -0.1633
vn 0.8822 -0.4168 -0.2189
vn 0.9222 -0.3789 -0.0771
vn 0.7149 -0.6934 -0.0897
vn 0.7490 -0.6620 0.0268
vn 0.4572 -0.8886 0.0371
vn 0.4863 -0.8619 0.1437
vn 0.1394 -0.9789 0.1497
vn 0.1684 -0.9518 0.2562
vn -0.2003 -0.9522 0.2305
vn -0.1655 -0.9230 0.3473
vn -0.5171 -0.8132 0.2671
vn -0.4760 -0.7783 0.4094
vn -0.7693 -0.5816 0.2645
vn -0.7240 -0.5378 0.4320
vn -0.9034 -0.3538 0.2423
vn -0.8555 -0.3086 0.4158
vn 0.8799 0.2509 -0.4035
vn 0.9259 0.2927 -0.2391
vn -0.8895 -0.2227 0.3990
vn -0.9354 -0.2645 0.2346
vn 0.2613 0.2379 0.9355
vn 0.2819 0.1748 0.9434
vn 0.3466 -0.0620 0.9360
vn 0.3999 -0.3716 0.8378
vn -0.3338 0.0089 -0.9426
vn -0.4111 0.5304 -0.7414
vn -0.2613 -0.2379 -0.9355
vn -0.2394 -0.2999 -0.9234
vn -0.1506 -0.5146 -0.8441
vn -0.0180 -0.7521 -0.6587
vn -0.0180 -0.7521 -0.6588
vn 0.9003 -0.1007 -0.4235
vn 0.8665 0.1438 -0.4780
vn 0.9644 0.2296 -0.1310
vn 0.9961 -0.0192 -0.0862
vn 0.8569 -0.4170 -0.3030
vn 0.9401 -0.3405 -0.0174
vn 0.7050 -0.6914 -0.1580
vn 0.7747 -0.6275 0.0776
vn 0.4467 -0.8945 -0.0186
vn 0.5046 -0.8408 0.1960
vn 0.1172 -0.9885 0.0955
vn 0.1749 -0.9345 0.3101
vn -0.2365 -0.9558 0.1747
vn -0.1652 -0.8965 0.4110
vn -0.5485 -0.8116 0.2010
vn -0.4637 -0.7399 0.4873
vn -0.7911 -0.5839 0.1823
vn -0.6982 -0.4939 0.5183
vn -0.9184 -0.3651 0.1526
vn -0.8221 -0.2744 0.4988
vn 0.8469 0.2265 -0.4811
vn 0.9102 0.3947 -0.1256
vn 0.9270 0.3420 -0.1541
vn 0.9247 0.3062 -0.2264
vn 0.9272 0.2692 -0.2604
vn -0.8560 -0.1997 0.4768
vn -0.9730 -0.2100 0.0961
vn -0.9576 -0.2518 0.1397
vn -0.9413 -0.2572 0.2186
vn -0.9245 -0.2770 0.2617
vn 0.8711 0.2574 -0.4183
vn -0.8877 -0.2084 0.4105
vn 0.1714 0.4689 0.8665
vn 0.8333 0.2566 -0.4897
vn 0.9383 0.3097 -0.1538
vn -0.8639 -0.1665 0.4753
vn -0.9474 -0.2829 0.1495
vn 0.0761 0.6586 0.7486
vn -0.0586 0.8515 0.5211
vn -0.3821 0.2414 -0.8920
vn -0.8918 -0.2472 0.3789
vn -0.8964 -0.2997 0.3265
vn -0.8964 -0.2998 0.3266
vn 0.8945 0.2394 -0.3776
vn 0.9245 0.2171 -0.3134
vn 0.9245 0.2172 -0.3134
vn -0.2596 -0.2427 -0.9347
vn 0.2596 0.2427 0.9347
vn -0.8933 -0.3071 0.3282
vn 0.9268 0.2097 -0.3115
vn -0.2578 -0.2480 -0.9338
vn 0.2578 0.2480 0.9338
vn -0.8961 -0.3003 0.3270
vn -0.8960 -0.3003 0.3271
vn 0.9248 0.2164 -0.3129
vn 0.9248 0.2165 -0.3128
vn -0.2603 -0.2407 -0.9350
vn 0.2602 0.2409 0.9350
vn -0.8998 -0.2931 0.3232
vn -0.9000 -0.2930 0.3229
vn 0.9214 0.2249 -0.3171
vn 0.9213 0.2247 -0.3173
vn -0.2856 -0.1631 -0.9444
vn 0.2857 0.1627 0.9444
vn -0.9064 -0.2760 0.3198
vn -0.9066 -0.2750 0.3202
vn -0.9113 -0.2587 0.3203
vn 0.9162 0.2408 -0.3203
vn 0.9113 0.2587 -0.3203
vn 0.9158 0.2418 -0.3207
vn -0.3296 -0.0078 -0.9441
vn -0.3706 0.1765 -0.9119
vn 0.3288 0.0108 0.9443
vn 0.3716 -0.1818 0.9104
vn -0.9080 -0.0541 0.4154
vn -0.9136 -0.0244 0.4059
vn -0.7530 0.2601 0.6045
vn -0.7380 0.2588 0.6232
vn 0.8690 0.4485 -0.2092
vn 0.8668 0.4400 -0.2346
vn 0.7114 0.6947 0.1062
vn 0.7209 0.6829 0.1182
vn -0.3959 0.3368 -0.8543
vn -0.4078 0.4595 -0.7890
vn 0.3966 -0.3428 0.8516
vn 0.4075 -0.4559 0.7913
vn -0.4891 0.5308 0.6922
vn 0.4770 0.8051 0.3526
vn -0.4117 0.5591 -0.7197
vn 0.4117 -0.5591 0.7197
vn -0.1753 0.7263 0.6646
vn 0.1614 0.8219 0.5463
vn 0.7982 0.2928 -0.5264
vn -0.8610 -0.1081 0.4969
# 129 vertex normals

vt 0.9637 0.2773 0.0000
vt 0.9637 0.3078 0.0000
vt 0.9510 0.3078 0.0000
vt 0.9510 0.2773 0.0000
vt 0.9637 0.2505 0.0000
vt 0.9510 0.2505 0.0000
vt 0.9202 0.6148 0.0000
vt 0.9202 0.5911 0.0000
vt 0.9329 0.5911 0.0000
vt 0.9329 0.6148 0.0000
vt 0.9202 0.6439 0.0000
vt 0.9329 0.6439 0.0000
vt 0.9202 0.6748 0.0000
vt 0.9329 0.6748 0.0000
vt 0.9202 0.7039 0.0000
vt 0.9329 0.7039 0.0000
vt 0.9202 0.7276 0.0000
vt 0.9329 0.7276 0.0000
vt 0.9779 0.2773 0.0000
vt 0.9779 0.2505 0.0000
vt 0.9906 0.2505 0.0000
vt 0.9906 0.2773 0.0000
vt 0.9779 0.3078 0.0000
vt 0.9906 0.3078 0.0000
vt 0.9637 0.6145 0.0000
vt 0.9510 0.6145 0.0000
vt 0.9906 0.6145 0.0000
vt 0.9779 0.6145 0.0000
vt 0.5447 0.6347 0.0000
vt 0.3906 0.6347 0.0000
vt 0.3862 0.3317 0.0000
vt 0.5491 0.3317 0.0000
vt 0.3911 0.3015 0.0000
vt 0.5442 0.3015 0.0000
vt 0.4053 0.2751 0.0000
vt 0.5300 0.2751 0.0000
vt 0.4269 0.2554 0.0000
vt 0.5084 0.2554 0.0000
vt 0.4535 0.2450 0.0000
vt 0.4818 0.2450 0.0000
vt 0.2234 0.9691 0.0000
vt 0.3677 0.9691 0.0000
vt 0.3674 0.9905 0.0000
vt 0.2237 0.9905 0.0000
vt 0.3770 0.3317 0.0000
vt 0.2141 0.3317 0.0000
vt 0.2190 0.3015 0.0000
vt 0.3721 0.3015 0.0000
vt 0.2331 0.2751 0.0000
vt 0.3579 0.2751 0.0000
vt 0.2548 0.2554 0.0000
vt 0.3363 0.2554 0.0000
vt 0.2814 0.2450 0.0000
vt 0.3097 0.2450 0.0000
vt 0.2049 0.2741 0.0000
vt 0.2049 0.3042 0.0000
vt 0.1642 0.3022 0.0000
vt 0.1642 0.2718 0.0000
vt 0.1108 0.3042 0.0000
vt 0.1108 0.2741 0.0000
vt 0.1515 0.2718 0.0000
vt 0.1515 0.3022 0.0000
vt 0.2049 0.2476 0.0000
vt 0.1642 0.2450 0.0000
vt 0.1108 0.2476 0.0000
vt 0.1515 0.2450 0.0000
vt 0.5604 0.5561 0.0000
vt 0.5554 0.5344 0.0000
vt 0.5961 0.5286 0.0000
vt 0.5961 0.5523 0.0000
vt 0.5991 0.3901 0.0000
vt 0.5940 0.4118 0.0000
vt 0.5584 0.4080 0.0000
vt 0.5584 0.3843 0.0000
vt 0.5683 0.5827 0.0000
vt 0.5961 0.5813 0.0000
vt 0.5862 0.4384 0.0000
vt 0.5584 0.4371 0.0000
vt 0.5683 0.6109 0.0000
vt 0.5961 0.6123 0.0000
vt 0.5862 0.4667 0.0000
vt 0.5584 0.4680 0.0000
vt 0.5604 0.6375 0.0000
vt 0.5961 0.6413 0.0000
vt 0.5940 0.4933 0.0000
vt 0.5584 0.4971 0.0000
vt 0.5554 0.6592 0.0000
vt 0.5961 0.6650 0.0000
vt 0.5991 0.5149 0.0000
vt 0.5584 0.5208 0.0000
vt 0.0076 0.2741 0.0000
vt 0.0076 0.2476 0.0000
vt 0.0483 0.2450 0.0000
vt 0.0483 0.2718 0.0000
vt 0.1016 0.2476 0.0000
vt 0.1016 0.2741 0.0000
vt 0.0610 0.2718 0.0000
vt 0.0610 0.2450 0.0000
vt 0.0076 0.3042 0.0000
vt 0.0483 0.3022 0.0000
vt 0.1016 0.3042 0.0000
vt 0.0610 0.3022 0.0000
vt 0.2049 0.6073 0.0000
vt 0.1642 0.6089 0.0000
vt 0.1231 0.9631 0.0000
vt 0.1108 0.9417 0.0000
vt 0.1515 0.9552 0.0000
vt 0.1515 0.9774 0.0000
vt 0.1016 0.6073 0.0000
vt 0.0610 0.6089 0.0000
vt 0.0198 0.9631 0.0000
vt 0.0076 0.9417 0.0000
vt 0.0483 0.9552 0.0000
vt 0.0483 0.9774 0.0000
vt 0.9637 0.9608 0.0000
vt 0.9510 0.9608 0.0000
vt 0.9906 0.9608 0.0000
vt 0.9779 0.9608 0.0000
vt 0.5398 0.9691 0.0000
vt 0.3955 0.9691 0.0000
vt 0.3726 0.6347 0.0000
vt 0.2185 0.6347 0.0000
vt 0.2049 0.9417 0.0000
vt 0.1642 0.9552 0.0000
vt 0.1515 0.6089 0.0000
vt 0.1108 0.6073 0.0000
vt 0.1016 0.9417 0.0000
vt 0.0610 0.9552 0.0000
vt 0.0483 0.6089 0.0000
vt 0.0076 0.6073 0.0000
vt 0.5626 0.8280 0.0000
vt 0.5626 0.6709 0.0000
vt 0.5911 0.6776 0.0000
vt 0.5911 0.8213 0.0000
vt 0.5605 0.9894 0.0000
vt 0.5605 0.8322 0.0000
vt 0.5889 0.8389 0.0000
vt 0.5889 0.9827 0.0000
vt 0.8972 0.2758 0.0000
vt 0.9099 0.2758 0.0000
vt 0.9099 0.4486 0.0000
vt 0.8972 0.4486 0.0000
vt 0.8702 0.2758 0.0000
vt 0.8830 0.2758 0.0000
vt 0.8830 0.4486 0.0000
vt 0.8702 0.4486 0.0000
vt 0.7309 0.0381 0.0000
vt 0.7309 0.1952 0.0000
vt 0.5581 0.2017 0.0000
vt 0.5581 0.0316 0.0000
vt 0.6517 0.2689 0.0000
vt 0.8088 0.2689 0.0000
vt 0.8153 0.4416 0.0000
vt 0.6452 0.4416 0.0000
vt 0.9081 0.6312 0.0000
vt 0.8954 0.6310 0.0000
vt 0.8848 0.6310 0.0000
vt 0.8721 0.6312 0.0000
vt 0.3757 0.2110 0.0000
vt 0.3757 0.0223 0.0000
vt 0.8246 0.6242 0.0000
vt 0.6359 0.6242 0.0000
vt 0.9062 0.8000 0.0000
vt 0.8934 0.7999 0.0000
vt 0.8867 0.7999 0.0000
vt 0.8740 0.8000 0.0000
vt 0.2068 0.2200 0.0000
vt 0.2068 0.0133 0.0000
vt 0.8336 0.7931 0.0000
vt 0.6269 0.7931 0.0000
vt 0.9065 0.8830 0.0000
vt 0.8939 0.8838 0.0000
vt 0.8863 0.8838 0.0000
vt 0.8736 0.8830 0.0000
vt 0.1229 0.2231 0.0000
vt 0.1229 0.0102 0.0000
vt 0.8367 0.8760 0.0000
vt 0.6239 0.8760 0.0000
vt 0.8995 0.9209 0.0000
vt 0.9120 0.9185 0.0000
vt 0.9179 0.9363 0.0000
vt 0.9063 0.9410 0.0000
vt 0.8807 0.9209 0.0000
vt 0.8738 0.9410 0.0000
vt 0.8623 0.9363 0.0000
vt 0.8682 0.9185 0.0000
vt 0.0858 0.2244 0.0000
vt 0.0657 0.2244 0.0000
vt 0.0657 0.0089 0.0000
vt 0.0858 0.0089 0.0000
vt 0.8380 0.9116 0.0000
vt 0.8380 0.9294 0.0000
vt 0.6226 0.9294 0.0000
vt 0.6226 0.9116 0.0000
vt 0.9183 0.9611 0.0000
vt 0.9289 0.9541 0.0000
vt 0.9406 0.9692 0.0000
vt 0.9324 0.9789 0.0000
vt 0.8513 0.9541 0.0000
vt 0.8619 0.9611 0.0000
vt 0.8469 0.9789 0.0000
vt 0.8387 0.9692 0.0000
vt 0.0456 0.0089 0.0000
vt 0.0456 0.2244 0.0000
vt 0.0278 0.2140 0.0000
vt 0.0278 0.0193 0.0000
vt 0.6226 0.9472 0.0000
vt 0.8380 0.9472 0.0000
vt 0.8276 0.9623 0.0000
vt 0.6329 0.9623 0.0000
vt 0.9575 0.9836 0.0000
vt 0.9493 0.9933 0.0000
vt 0.8300 0.9933 0.0000
vt 0.8218 0.9836 0.0000
vt 0.0163 0.1977 0.0000
vt 0.0163 0.0356 0.0000
vt 0.8113 0.9737 0.0000
vt 0.6492 0.9737 0.0000
vt 0.9310 0.9037 0.0000
vt 0.9213 0.9037 0.0000
vt 0.9281 0.8767 0.0000
vt 0.9378 0.8767 0.0000
vt 0.9213 0.7416 0.0000
vt 0.9310 0.7416 0.0000
vt 0.9378 0.7686 0.0000
vt 0.9281 0.7686 0.0000
vt 0.0083 0.1707 0.0000
vt 0.0083 0.0626 0.0000
vt 0.7843 0.9818 0.0000
vt 0.6762 0.9818 0.0000
vt 0.8702 0.2537 0.0000
vt 0.8830 0.2537 0.0000
vt 0.8972 0.2537 0.0000
vt 0.9099 0.2537 0.0000
vt 0.5395 0.9905 0.0000
vt 0.3958 0.9905 0.0000
vt 0.1926 0.9631 0.0000
vt 0.1642 0.9774 0.0000
vt 0.0894 0.9631 0.0000
vt 0.0610 0.9774 0.0000
# 240 texture coords

g PlasterSpatula2
usemtl PlasterSpatula2
s 2
f 1/1/1 2/2/2 3/3/3 4/4/4 
f 5/5/5 1/1/1 4/4/4 6/6/6 
f 7/7/7 5/8/5 6/9/6 8/10/8 
f 9/11/9 7/7/7 8/10/8 10/12/10 
f 11/13/11 9/11/9 10/12/10 12/14/12 
f 13/15/13 11/13/11 12/14/12 14/16/14 
f 15/17/15 13/15/13 14/16/14 16/18/16 
f 17/19/17 15/20/15 16/21/16 18/22/18 
f 19/23/19 17/19/17 18/22/18 20/24/20 
f 2/2/2 21/25/21 22/26/22 3/3/3 
f 20/24/20 23/27/23 24/28/24 19/23/19 
s 1
f 25/29/25 26/30/25 27/31/25 28/32/25 
f 29/33/25 30/34/25 28/32/25 27/31/25 
f 31/35/26 32/36/26 30/34/25 29/33/25 
f 33/37/27 34/38/27 32/36/26 31/35/26 
f 35/39/28 36/40/28 34/38/27 33/37/27 
f 37/41/29 38/42/29 39/43/30 40/44/30 
f 41/45/31 42/46/31 43/47/31 44/48/31 
f 44/48/31 43/47/31 45/49/32 46/50/32 
f 46/50/32 45/49/32 47/51/33 48/52/33 
f 48/52/33 47/51/33 49/53/34 50/54/35 
s 2
f 43/55/36 42/56/37 2/57/2 1/58/1 
f 28/59/38 30/60/39 4/61/4 3/62/3 
f 45/63/40 43/55/36 1/58/1 5/64/5 
f 30/60/39 32/65/41 6/66/6 4/61/4 
f 47/67/42 45/68/40 5/69/5 7/70/7 
f 32/71/41 34/72/43 8/73/8 6/74/6 
f 49/75/44 47/67/42 7/70/7 9/76/9 
f 34/72/43 36/77/45 10/78/10 8/73/8 
f 50/79/46 49/75/44 9/76/9 11/80/11 
f 36/77/45 35/81/47 12/82/12 10/78/10 
f 48/83/48 50/79/46 11/80/11 13/84/13 
f 35/81/47 33/85/49 14/86/14 12/82/12 
f 46/87/50 48/83/48 13/84/13 15/88/15 
f 33/85/49 31/89/51 16/90/16 14/86/14 
f 44/91/52 46/92/50 15/93/15 17/94/17 
f 31/95/51 29/96/53 18/97/18 16/98/16 
f 41/99/54 44/91/52 17/94/17 19/100/19 
f 29/96/53 27/101/55 20/102/20 18/97/18 
f 42/56/37 51/103/56 21/104/21 2/57/2 
f 52/105/57 53/106/58 54/107/59 55/108/60 
f 27/101/55 26/109/61 23/110/23 20/102/20 
f 39/111/62 38/112/63 56/113/64 57/114/65 
f 58/115/66 54/116/59 22/26/22 21/25/21 
f 59/117/67 56/118/64 24/28/24 23/27/23 
s 1
f 53/119/68 60/120/68 26/30/25 25/29/25 
f 42/46/31 41/45/31 61/121/31 51/122/31 
s 2
f 37/123/69 58/124/66 21/104/21 51/103/56 
f 28/59/38 3/62/3 22/125/22 25/126/70 
f 60/127/71 59/128/67 23/110/23 26/109/61 
f 41/99/54 19/100/19 24/129/24 61/130/72 
s 1
f 55/131/73 62/132/73 63/133/74 52/134/74 
f 57/135/75 64/136/75 40/137/30 39/138/30 
s 2
f 57/139/65 62/140/76 65/141/77 66/142/78 
f 55/143/60 64/144/79 67/145/80 68/146/81 
s 1
f 64/147/75 57/148/75 66/149/82 67/150/82 
f 62/151/73 55/152/73 68/153/83 65/154/83 
s 2
f 66/142/78 65/141/77 69/155/84 70/156/84 
f 68/146/81 67/145/80 71/157/85 72/158/85 
s 1
f 67/150/82 66/149/82 70/159/86 71/160/86 
f 65/154/83 68/153/83 72/161/87 69/162/87 
s 2
f 70/156/84 69/155/84 73/163/88 74/164/89 
f 72/158/85 71/157/85 75/165/90 76/166/91 
s 1
f 71/160/86 70/159/86 74/167/92 75/168/92 
f 69/162/87 72/161/87 76/169/93 73/170/93 
s 2
f 73/163/88 77/171/94 78/172/95 74/164/89 
f 75/165/90 79/173/96 80/174/97 76/166/91 
s 1
f 74/167/92 78/175/98 79/176/98 75/168/92 
f 76/169/93 80/177/99 77/178/99 73/170/93 
s 2
f 81/179/100 82/180/101 83/181/102 84/182/102 
f 85/183/103 86/184/104 87/185/104 88/186/105 
s 1
f 81/187/106 84/188/107 86/189/107 85/190/106 
f 88/191/108 87/192/109 83/193/109 82/194/108 
s 2
f 89/195/110 90/196/111 91/197/112 92/198/113 
f 93/199/114 94/200/115 95/201/116 96/202/117 
s 1
f 94/203/118 89/204/118 92/205/119 95/206/119 
f 90/207/120 93/208/120 96/209/121 91/210/121 
s 2
f 92/198/113 91/197/112 97/211/122 98/212/122 
f 96/202/117 95/201/116 99/213/123 100/214/123 
s 1
f 95/206/119 92/205/119 98/215/124 99/216/124 
f 91/210/121 96/209/121 100/217/125 97/218/125 
s 2
f 98/219/122 97/220/122 101/221/126 102/222/126 
f 100/223/123 99/224/123 103/225/127 104/226/127 
s 1
f 99/216/124 98/215/124 102/227/124 103/228/124 
f 97/218/125 100/217/125 104/229/125 101/230/125 
s 2
f 104/226/127 103/225/127 102/222/126 101/221/126 
s 1
f 51/122/31 61/121/31 38/42/29 37/41/29 
s 2
f 53/106/58 25/126/70 22/125/22 54/107/59 
f 38/112/63 61/130/72 24/129/24 56/113/64 
f 64/144/79 55/143/60 54/231/59 58/232/66 
f 62/140/76 57/139/65 56/233/64 59/234/67 
s 1
f 53/119/68 52/235/74 63/236/74 60/120/68 
s 2
f 40/237/128 64/238/79 58/124/66 37/123/69 
f 63/239/129 62/240/76 59/128/67 60/127/71 
f 82/180/101 81/179/100 78/172/95 77/171/94 
f 85/183/103 88/186/105 80/174/97 79/173/96 
s 1
f 81/187/106 85/190/106 79/176/98 78/175/98 
f 88/191/108 82/194/108 77/178/99 80/177/99 
s 2
f 90/196/111 89/195/110 84/182/102 83/181/102 
f 86/184/104 94/200/115 93/199/114 87/185/104 
s 1
f 89/204/118 94/203/118 86/189/107 84/188/107 
f 93/208/120 90/207/120 83/193/109 87/192/109 
# 102 polygons

